<svg version="1" xmlns="http://www.w3.org/2000/svg" width="1365.333" height="1365.333" viewBox="0 0 1024.000000 1024.000000"><path d="M180.5 230.7c-34 7.3-60.5 33.7-65.4 65.3-.9 5.6-1.1 63.2-.9 226.5l.3 219 2.3 7c9.4 27.8 31.9 48.2 61.3 55.6l9.4 2.4H512c359.5 0 328.5.6 346.5-6.4 10.9-4.2 19.5-10 29.1-19.5 9.1-9.1 14.9-18.3 19.1-30.2l2.8-7.9v-449l-2.3-7c-8.9-26.6-29.4-45.8-58.2-54.7l-7.5-2.3-327-.2c-287.6-.1-327.8 0-334 1.4zM829.9 282c9.6 1.8 16.7 6.7 20.8 14.3 1.7 3 1.8 14.9 2.1 220.3l.2 217-2.7 5.4c-1.7 3.4-4.5 6.8-7.1 8.7-9.1 6.8 18.4 6.3-333.2 6.1l-318.5-.3-5.7-2.8c-3.3-1.6-7-4.5-8.8-6.7-6.5-8.2-6 8.7-5.8-228 .3-208 .4-215.6 2.2-219 4.1-7.7 11.5-13.3 19.9-15 6.2-1.2 630.2-1.2 636.6 0z"/><path d="M274.2 377.7c-5.5 2.7-7.7 6.8-7.7 14.3 0 5.1.5 7.2 2.2 9.5 1.2 1.7 38.2 27.9 83.2 59 44.5 30.8 81 56.2 81 56.5.1.3-36.7 26.1-81.6 57.2-58.6 40.6-82.3 57.6-83.7 59.9-4.3 7.3-1.5 18.5 5.7 22.4 7.4 3.9 3.5 6.3 104.1-63.5 84.4-58.6 93.1-64.8 94.7-68.5 3.2-7 1.9-14.5-3.2-19.2-3.8-3.4-182.9-127.4-185.6-128.4-3.4-1.3-5.3-1.1-9.1.8zM500.1 634.8c-4.8 2.4-7.3 6.2-7.8 11.9-.5 5.9 1.8 10.8 6.6 14l3.4 2.3h242.4l3.4-2.3c7.1-4.7 8.9-14.7 3.9-21.7-4.5-6.3 2.6-6-128.7-6-112.1 0-120 .1-123.2 1.8z"/></svg>